<?xml version="1.0" standalone="no"?>
<!DOCTYPE svg PUBLIC "-//W3C//DTD SVG 20010904//EN"
 "http://www.w3.org/TR/2001/REC-SVG-20010904/DTD/svg10.dtd">
<svg version="1.0" xmlns="http://www.w3.org/2000/svg"
 width="752.000000pt" height="752.000000pt" viewBox="0 0 752.000000 752.000000"
 preserveAspectRatio="xMidYMid meet">
<metadata>
Created by potrace 1.14, written by Peter Selinger 2001-2017
</metadata>
<g transform="translate(0.000000,752.000000) scale(0.100000,-0.100000)"
fill="#000000" stroke="none">
<path d="M3627 5823 c-127 -86 -315 -213 -417 -281 l-184 -125 -18 24 c-94
130 -109 147 -143 164 -59 27 -133 24 -188 -8 -129 -76 -327 -220 -347 -252
-49 -79 -39 -155 32 -260 27 -42 49 -77 47 -79 -2 -2 -175 -119 -384 -261
-209 -142 -391 -267 -405 -278 -34 -25 -49 -56 -43 -86 4 -25 234 -375 283
-431 49 -57 62 -52 278 94 267 180 462 314 550 375 40 28 76 51 81 51 5 0 39
-47 77 -104 75 -114 118 -151 189 -161 23 -4 58 -2 77 3 43 12 358 221 386
257 32 40 45 92 39 147 -5 40 -20 71 -77 154 -38 57 -70 108 -70 112 0 10 70
58 500 346 162 109 305 209 318 223 12 13 22 36 22 51 0 18 -48 99 -146 245
-141 211 -164 237 -210 237 -8 0 -119 -70 -247 -157z m319 -176 c80 -121 81
-123 60 -138 -12 -9 -175 -120 -364 -247 l-344 -231 -84 126 c-47 69 -84 126
-82 128 2 1 136 92 298 201 162 109 322 217 355 240 33 24 65 43 70 43 6 0 46
-55 91 -122z m-975 -457 c94 -140 223 -331 285 -424 63 -92 114 -174 114 -182
0 -18 -298 -217 -315 -210 -8 2 -31 31 -52 63 -22 32 -150 223 -287 426 -136
202 -246 374 -244 382 5 23 290 212 310 206 9 -4 94 -121 189 -261z m-381
-452 l82 -122 -28 -20 c-42 -31 -167 -117 -379 -260 -104 -71 -218 -149 -251
-172 -34 -24 -64 -44 -66 -44 -8 0 -172 250 -167 254 2 2 81 55 174 118 94 64
253 172 355 242 101 69 187 126 191 126 3 0 43 -55 89 -122z"/>
<path d="M3673 4308 c-13 -6 -29 -30 -38 -57 -29 -83 -57 -130 -102 -172 -71
-65 -121 -83 -236 -85 -76 -1 -102 -6 -117 -19 -40 -36 -33 -106 13 -135 35
-22 173 -23 250 -1 159 44 291 169 338 322 24 78 24 92 -5 126 -26 31 -66 39
-103 21z"/>
<path d="M4023 4235 c-15 -10 -31 -45 -48 -103 -80 -263 -287 -451 -550 -497
-47 -8 -144 -8 -217 0 -66 7 -68 6 -97 -23 -24 -23 -29 -36 -26 -62 7 -54 36
-75 120 -86 34 -5 199 -5 221 0 12 2 37 7 55 10 129 21 304 110 415 213 127
117 242 325 257 466 8 72 -72 123 -130 82z"/>
<path d="M4416 4149 c-14 -11 -26 -26 -26 -34 0 -38 -57 -202 -100 -290 -60
-122 -124 -208 -225 -304 -239 -227 -561 -332 -894 -291 -98 12 -104 11 -129
-7 -15 -11 -29 -31 -33 -44 -7 -29 7 -73 28 -90 46 -39 374 -48 528 -14 160
34 321 102 455 191 63 42 88 62 174 142 91 84 189 219 253 347 55 110 113 299
106 345 -10 64 -84 91 -137 49z"/>
<path d="M2721 3692 c-14 -5 -80 -46 -561 -350 -135 -85 -263 -166 -285 -179
-163 -97 -352 -224 -369 -246 -16 -22 -18 -33 -10 -63 8 -34 23 -46 159 -136
83 -54 157 -101 165 -105 8 -4 17 -9 20 -12 3 -3 17 -13 31 -21 37 -21 863
-553 869 -560 3 -3 17 -12 31 -20 14 -8 200 -127 413 -265 213 -137 399 -258
414 -267 67 -43 90 -51 120 -42 16 5 228 135 471 289 242 154 452 287 466 295
27 17 317 200 590 374 99 63 239 151 310 196 387 242 385 241 385 295 0 17 -8
41 -17 51 -10 11 -83 60 -163 109 -80 48 -192 118 -250 153 -58 36 -132 82
-165 103 -33 20 -170 105 -304 188 -179 111 -253 151 -276 151 -59 0 -96 -71
-67 -127 10 -17 43 -40 174 -118 9 -5 155 -95 323 -200 168 -104 347 -215 397
-246 51 -32 94 -61 95 -66 2 -4 -32 -30 -74 -56 -43 -27 -112 -70 -153 -96
-41 -27 -167 -107 -280 -178 -534 -337 -898 -567 -930 -588 -75 -49 -477 -303
-515 -325 l-40 -23 -210 136 c-116 74 -302 195 -415 267 -113 73 -314 202
-448 288 -133 87 -386 249 -562 362 -176 113 -320 208 -320 212 0 3 17 17 38
29 247 151 1021 645 1035 661 48 57 -21 155 -92 130z"/>
</g>
</svg>
